<svg width="918" height="421" xmlns="http://www.w3.org/2000/svg"><rect width="100%" height="100%" fill="#efeeeb"/><g transform="translate(40 40)" fill="#2B2B2B"><path d="M685.07 41.525h38.202l29.762 76.992 33.537-76.992h38.424l-74.404 167.002h-37.536l19.545-43.322-47.53-123.68z"/><path d="M666.069 176.429h-35.537V73.624h-14.436V41.526h12.437c.593-13.019 5.479-23.12 14.659-30.303C652.817 3.741 666.809 0 685.17 0v33.22h-8.662c-4.738 0-7.774.45-9.106 1.348-1.333 1.047-2.073 3.367-2.222 6.958h19.99v32.098h-19.101V176.43zM566.439 176.205V43.322h35.537v132.883h-35.537zM508.572 176.205V1.571h35.537v174.634h-35.537zM450.699 176.205V1.571h35.537v174.634h-35.537zM392.83 176.205V43.322h35.537v132.883H392.83zM300.31 178.898c-19.989 0-36.795-6.958-50.418-20.875-13.622-13.617-20.433-30.228-20.433-49.831 0-9.128 1.703-18.032 5.108-26.711 3.406-8.53 8.218-16.012 14.437-22.447 6.515-7.033 13.919-12.27 22.21-15.712 8.44-3.442 17.695-5.163 27.763-5.163 6.959 0 13.771.973 20.434 2.918 6.219 1.796 11.327 4.19 15.325 7.183V41.3h35.536v134.904h-35.758v-7.183c-3.998 2.693-8.958 4.938-14.881 6.734-6.515 2.095-12.956 3.142-19.323 3.142zm35.092-69.359c0-10.924-3.405-19.903-10.217-26.936-6.515-6.584-14.584-9.876-24.209-9.876-10.069 0-18.36 3.217-24.875 9.651-6.663 6.585-9.995 15.114-9.995 25.589 0 11.074 3.332 20.053 9.995 26.936 6.515 6.884 14.881 10.326 25.097 10.326 9.181 0 17.176-3.517 23.987-10.55 6.812-6.884 10.217-15.264 10.217-25.14zM194.913 176.205h-35.536V41.302h34.204v4.04c1.777-1.646 5.108-2.993 9.994-4.04 5.627-1.347 11.994-2.02 19.101-2.02v35.465c-11.549.599-19.175 2.843-22.876 6.734-3.258 3.442-4.887 10.176-4.887 20.202v74.522zM70.185 178.898c-6.663 0-13.253-1.047-19.768-3.142-5.922-1.796-10.735-4.041-14.436-6.734v7.183H0V1.571h35.536V48.26c3.85-2.993 8.885-5.387 15.103-7.183 6.664-1.945 13.623-2.918 20.878-2.918 9.773 0 18.879 1.72 27.319 5.163 8.292 3.441 15.769 8.679 22.432 15.712 6.219 6.435 11.031 13.917 14.437 22.447 3.554 8.679 5.33 17.583 5.33 26.711 0 19.453-6.885 36.064-20.655 49.831-13.771 13.917-30.502 20.875-50.195 20.875zm-35.093-69.359c0 9.876 3.332 18.256 9.995 25.14 6.663 7.033 14.733 10.549 24.21 10.549 10.068 0 18.36-3.441 24.875-10.325 6.811-6.884 10.216-15.862 10.216-26.936 0-10.475-3.405-19.004-10.216-25.589-6.663-6.434-14.955-9.652-24.876-9.652-9.772 0-17.916 3.293-24.431 9.877-6.515 7.033-9.773 16.012-9.773 26.936z"/><circle cx="411.51" cy="19.505" r="19.346"/><circle cx="584.708" cy="19.505" r="19.346"/><circle cx="819" cy="160" r="19"/><circle cx="106.179" cy="254.703" r="11.197"/><circle cx="106.179" cy="292.224" r="11.197"/><circle cx="106.179" cy="329.744" r="11.197"/><circle cx="146.279" cy="292.224" r="11.197"/><circle cx="201.226" cy="254.703" r="11.197"/><circle cx="296.267" cy="292.224" r="11.197"/><circle cx="336.363" cy="254.703" r="11.197"/><circle cx="391.308" cy="254.703" r="11.197"/><circle cx="391.308" cy="292.224" r="11.197"/><circle cx="391.308" cy="329.744" r="11.197"/><circle cx="486.349" cy="254.703" r="11.197"/><circle cx="486.349" cy="292.224" r="11.197"/><circle cx="486.349" cy="329.744" r="11.197"/><circle cx="581.392" cy="292.224" r="11.197"/><circle cx="621.482" cy="254.703" r="11.197"/><circle cx="676.427" cy="254.703" r="11.197"/><circle cx="676.427" cy="292.224" r="11.197"/><circle cx="716.529" cy="254.703" r="11.197"/><circle cx="771.474" cy="254.703" r="11.197"/><circle cx="771.474" cy="329.744" r="11.197"/><circle cx="811.509" cy="254.703" r="11.197"/><circle cx="811.509" cy="292.224" r="11.197"/><circle cx="811.509" cy="329.803" r="11.197"/><circle cx="11.197" cy="253.893" r="11.197"/><circle cx="11.197" cy="291.473" r="11.197"/></g></svg>